<?xml version="1.0" standalone="no"?>
<!DOCTYPE svg PUBLIC "-//W3C//DTD SVG 20010904//EN"
 "http://www.w3.org/TR/2001/REC-SVG-20010904/DTD/svg10.dtd">
<svg version="1.0" xmlns="http://www.w3.org/2000/svg"
 width="350.000000pt" height="350.000000pt" viewBox="0 0 350.000000 350.000000"
 preserveAspectRatio="xMidYMid meet">
<metadata>
Created by potrace 1.11, written by Peter Selinger 2001-2013
</metadata>
<g transform="translate(0.000000,350.000000) scale(0.100000,-0.100000)"
fill="#000000" stroke="none">
<path d="M0 1750 l0 -1750 1750 0 1750 0 0 1750 0 1750 -1750 0 -1750 0 0
-1750z m1578 1398 c60 -56 82 -180 41 -232 -26 -33 -75 -35 -113 -5 -70 55
-95 191 -46 244 21 22 31 26 59 21 19 -3 45 -16 59 -28z m-116 -1119 c3 -275
2 -288 -17 -309 -38 -42 -114 -66 -130 -40 -3 5 -13 65 -22 132 -21 158 -24
501 -5 575 13 49 16 53 50 58 21 4 53 9 72 14 l35 7 7 -76 c3 -41 8 -204 10
-361z m192 159 c21 -5 185 -77 365 -160 179 -83 362 -166 406 -185 216 -93
315 -141 315 -152 0 -5 -50 12 -111 39 -61 28 -112 50 -113 50 0 0 0 -29 2
-64 l4 -63 71 -6 c126 -9 219 -58 246 -128 14 -39 -2 -139 -25 -156 -63 -47
-175 -83 -261 -83 -28 0 -54 -4 -57 -9 -3 -4 42 -30 99 -56 58 -27 105 -53
105 -58 0 -5 -7 -6 -17 -3 -10 4 -37 -8 -74 -34 -60 -42 -69 -46 -69 -30 0 5
20 23 45 40 25 17 45 35 45 39 0 5 -32 22 -70 40 l-70 31 -54 -42 c-50 -39
-55 -46 -55 -85 -2 -83 -91 -144 -245 -165 -75 -11 -90 -17 -203 -87 -68 -42
-123 -79 -123 -82 0 -4 23 -16 50 -27 28 -12 50 -26 50 -31 0 -15 1 -15 -65
14 -32 14 -63 25 -70 23 -6 -2 -101 -57 -210 -123 l-197 -120 48 -22 c27 -12
80 -36 117 -53 37 -17 65 -34 62 -39 -3 -5 -59 15 -125 45 -66 30 -122 54
-124 54 -3 0 -25 13 -48 30 -24 16 -227 133 -453 258 -384 215 -411 232 -434
271 -22 40 -24 57 -31 269 -7 200 -6 231 9 262 13 29 50 56 216 159 110 68
292 177 405 242 l205 120 6 -93 c4 -51 10 -142 13 -203 6 -101 9 -112 32 -132
33 -30 105 -31 151 -3 62 38 67 59 60 302 -3 119 -2 219 1 223 8 8 123 -3 176
-17z m1242 -556 c9 -5 12 -12 7 -15 -13 -8 -144 54 -137 64 4 7 81 -22 130
-49z m208 -23 c-4 -32 -3 -59 2 -59 4 0 23 14 41 32 18 17 36 28 40 24 5 -4
-9 -23 -31 -42 l-39 -34 47 -19 c25 -11 46 -25 46 -31 0 -14 -5 -13 -50 10
-22 11 -44 20 -50 20 -6 0 -10 -30 -10 -74 0 -41 -4 -78 -10 -81 -9 -5 -12 31
-13 165 -1 49 17 159 25 154 5 -3 6 -32 2 -65z m-81 -35 c20 -10 37 -21 37
-26 0 -11 -1 -11 -74 22 -36 16 -66 34 -66 40 0 10 26 1 103 -36z m-4 -135
c-30 -26 -61 -48 -69 -48 -8 0 12 24 44 54 33 30 64 51 69 48 5 -3 -15 -27
-44 -54z m241 21 c0 -5 -4 -10 -9 -10 -6 0 -13 5 -16 10 -3 6 1 10 9 10 9 0
16 -4 16 -10z m-326 -79 c7 -10 -113 -106 -121 -97 -8 7 -4 12 62 65 57 46 52
43 59 32z m166 -68 c0 -57 -13 -132 -21 -127 -17 10 -5 154 12 154 5 0 9 -12
9 -27z m-300 -42 c0 -12 -110 -94 -118 -87 -7 8 -1 14 58 60 47 36 60 42 60
27z m290 -175 c0 -41 -4 -78 -10 -81 -6 -4 -10 23 -10 74 0 47 4 81 10 81 6 0
10 -31 10 -74z m-289 24 c33 -17 57 -35 54 -40 -6 -10 -135 49 -135 62 0 14
19 9 81 -22z m-271 -48 c0 -8 -114 -92 -125 -92 -18 0 3 24 52 59 56 41 73 48
73 33z m433 -28 c26 -14 47 -29 47 -34 0 -6 -2 -10 -5 -10 -13 0 -135 66 -135
73 0 11 33 0 93 -29z m159 -27 l-32 -33 35 -17 c19 -9 35 -21 35 -27 0 -13
-10 -12 -40 5 -24 13 -25 12 -36 -23 l-12 -37 -1 45 c-1 34 -4 41 -13 32 -18
-18 -30 -14 -23 8 4 12 2 20 -5 20 -6 0 -9 4 -6 9 3 4 16 6 28 4 16 -3 31 4
47 21 14 14 31 26 40 26 10 0 4 -11 -17 -33z m-732 -44 c0 -9 -112 -83 -124
-83 -18 0 2 22 49 54 49 34 75 44 75 29z m630 -32 c0 -15 -111 -102 -121 -95
-5 3 18 28 52 55 66 52 69 54 69 40z m206 -26 c15 -11 16 -14 3 -15 -8 0 -24
7 -35 15 -15 11 -16 14 -3 15 8 0 24 -7 35 -15z m-982 -34 c3 -5 -19 -25 -49
-45 -63 -41 -69 -44 -73 -32 -2 4 23 26 55 47 66 44 60 42 67 30z m646 -48 c0
-8 -102 -85 -122 -92 -25 -8 1 21 51 59 54 39 71 47 71 33z m-928 -86 l3 -37
67 45 c37 25 70 40 73 35 3 -5 -21 -27 -54 -47 -33 -21 -60 -41 -61 -44 0 -3
18 -14 40 -24 25 -11 37 -22 32 -27 -6 -6 -26 -1 -50 11 -51 26 -52 26 -52 1
0 -11 -4 -20 -10 -20 -5 0 -10 7 -10 15 0 11 -15 5 -49 -20 -29 -21 -52 -31
-56 -26 -3 6 17 25 44 43 28 18 49 38 46 45 -2 7 0 15 5 18 6 4 10 25 10 48 0
51 17 38 22 -16z m788 -16 c0 -10 -91 -78 -117 -88 -31 -12 -7 17 47 56 58 41
70 47 70 32z m-639 -92 c11 -5 17 -14 14 -20 -7 -11 -45 7 -45 21 0 13 7 13
31 -1z m499 -8 c0 -14 -118 -92 -125 -82 -3 6 21 28 52 50 60 41 73 47 73 32z
m-640 -87 c0 -41 -4 -74 -9 -74 -9 0 -23 139 -15 152 14 22 24 -10 24 -78z
m500 -11 c0 -12 -120 -86 -127 -79 -8 7 -11 5 57 50 55 36 70 42 70 29z m-493
-229 c-16 -16 -27 15 -27 75 0 94 13 98 24 7 5 -42 6 -79 3 -82z m353 137 c0
-10 -105 -81 -120 -81 -22 0 -7 17 48 52 59 39 72 44 72 29z m-645 -73 c60
-30 81 -48 55 -48 -19 0 -130 60 -130 70 0 14 3 13 75 -22z m499 -17 c3 -5
-19 -25 -49 -45 -62 -41 -68 -44 -75 -34 -4 5 94 78 117 87 1 1 4 -3 7 -8z
m-284 -93 c0 -14 -19 -9 -80 22 -83 42 -75 55 10 17 39 -17 70 -34 70 -39z
m80 -4 l0 -25 29 21 c16 11 32 16 35 11 3 -5 -6 -17 -21 -26 l-26 -18 26 -14
c15 -7 27 -18 27 -24 0 -5 -13 -3 -30 6 -39 20 -40 20 -40 -20 0 -19 -4 -35
-10 -35 -5 0 -10 14 -10 30 0 27 -2 29 -19 21 -27 -15 -34 -1 -9 19 l22 17
-22 7 c-31 10 -28 30 3 22 22 -6 25 -3 25 19 0 15 4 24 10 20 6 -3 10 -17 10
-31z m150 -115 c0 -5 -13 -3 -30 6 -16 9 -30 20 -30 26 0 5 14 3 30 -6 17 -9
30 -20 30 -26z m-230 21 c0 -14 -79 -64 -88 -56 -4 4 0 11 9 16 9 5 27 18 40
29 27 23 39 26 39 11z"/>
<path d="M1927 1860 c-98 -25 -161 -81 -172 -153 -18 -117 89 -198 260 -199
120 -1 235 47 281 116 22 35 21 112 -3 144 -25 35 -76 69 -122 83 -49 15 -197
20 -244 9z m293 -43 c62 -30 87 -75 71 -127 -11 -39 -42 -70 -69 -70 -10 0
-12 6 -7 18 4 9 12 34 17 54 14 51 -13 105 -67 136 -49 28 -11 21 55 -11z"/>
<path d="M2405 1667 c-94 -95 -241 -214 -369 -299 -111 -74 -122 -84 -72 -63
56 24 164 30 237 15 72 -16 145 -62 169 -106 l16 -32 42 35 c55 45 54 66 -1
80 -65 18 -124 65 -136 110 -16 57 -13 104 9 140 21 35 96 78 157 91 38 8 38
8 41 60 2 29 -1 51 -5 51 -4 -1 -44 -38 -88 -82z"/>
<path d="M2481 1629 c-111 -19 -201 -93 -185 -153 19 -78 147 -132 293 -124
144 9 241 66 241 143 0 92 -184 162 -349 134z"/>
<path d="M1502 1570 c-55 -8 -152 -50 -172 -75 -24 -29 -37 -85 -30 -133 23
-150 298 -202 473 -90 100 64 112 175 25 242 -19 14 -39 26 -44 26 -5 0 8 -11
28 -25 45 -31 58 -53 58 -98 0 -46 -28 -79 -92 -108 -46 -20 -69 -24 -168 -24
-104 0 -120 3 -172 27 -68 31 -102 77 -93 122 7 39 30 63 90 94 42 21 67 27
150 30 56 2 118 -1 140 -7 21 -6 41 -9 43 -6 7 6 -69 23 -128 28 -30 3 -79 2
-108 -3z"/>
<path d="M2300 1416 c0 -50 105 -112 209 -122 135 -15 321 57 321 122 0 15 -3
15 -23 -4 -32 -30 -102 -59 -176 -72 -105 -19 -224 6 -293 61 -27 21 -38 26
-38 15z"/>
<path d="M1784 1207 c-55 -34 -168 -100 -252 -147 -83 -47 -152 -88 -152 -91
0 -3 52 -28 115 -54 63 -26 115 -51 115 -55 0 -3 6 -7 13 -7 17 0 130 -52 137
-63 3 -5 65 28 137 73 l133 82 -41 12 c-55 16 -104 48 -129 84 -16 21 -22 46
-23 98 -2 65 0 72 27 100 17 17 28 31 25 31 -2 -1 -49 -29 -105 -63z"/>
<path d="M1354 745 c1 -113 4 -205 8 -205 4 0 94 53 199 117 l192 117 -79 37
c-62 29 -222 99 -310 135 -7 3 -10 -60 -10 -201z"/>
</g>
</svg>
